# xmcd CD database file
#
# Track frame offsets:
#	150
#	13541
#	25841
#	40600
#	54396
#	68063
#	80050
#	94336
#	108150
#	132867
#	144005
#	158146
#	172487
#	184031
#	195693
#	207754
#	219702
#	235298
#	248946
#	263293
#
# Disc length: 3685 seconds
#
# Revision: 6
# Processed by: cddbd v1.5.2PL0 Copyright (c) Steve Scherf et al.
# Submitted via: CDex 1.81
#
DISCID=100e6314
DTITLE=Lester Young - Hall of Fame - 5 Lester Leaps In
DYEAR=2002
DGENRE=Jazz
TTITLE0=One O'Clock Jump
TTITLE1=Swingin' The Blues
TTITLE2=Every Tub
TTITLE3=Jumpin' At The Woodside
TTITLE4=Texas Shuffle
TTITLE5=Jive At Five
TTITLE6=Oh! Lady Be Good
TTITLE7=Twelfth Street Rag
TTITLE8=Miss Thing Part I and II
TTITLE9=Clap Hands, Here Comes Charlie
TTITLE10=Dickie's Dream
TTITLE11=Lester Leaps In
TTITLE12=Ham 'N' Eggs
TTITLE13=Hollywood Jump
TTITLE14=I Never Knew
TTITLE15=TickleToe
TTITLE16=Easy Does It
TTITLE17=Five O'Clock Whistle
TTITLE18=Love Jumped Out
TTITLE19=Broadway
EXTD=YEAR: 2002
EXTT0=
EXTT1=
EXTT2=
EXTT3=
EXTT4=
EXTT5=
EXTT6=
EXTT7=
EXTT8=
EXTT9=
EXTT10=
EXTT11=
EXTT12=
EXTT13=
EXTT14=
EXTT15=
EXTT16=
EXTT17=
EXTT18=
EXTT19=
PLAYORDER=
